<svg width="318" height="19" viewBox="0 0 318 19" fill="none" xmlns="http://www.w3.org/2000/svg">
<path d="M4.5 11.4545C4.5 10.7557 4.67045 10.1186 5.01136 9.54332C5.35227 8.96804 5.81037 8.50994 6.38565 8.16903C6.96094 7.82812 7.59801 7.65767 8.29688 7.65767C8.90199 7.65767 9.46023 7.78764 9.97159 8.04759C10.4872 8.30753 10.9134 8.66335 11.25 9.11506C11.5866 9.5625 11.7955 10.0696 11.8764 10.6364H10.3295C10.2443 10.1974 10.0078 9.83949 9.62003 9.5625C9.23224 9.28125 8.79119 9.14062 8.29688 9.14062C7.87074 9.14062 7.48295 9.24503 7.13352 9.45384C6.78409 9.66264 6.50497 9.94176 6.29616 10.2912C6.08736 10.6406 5.98295 11.0284 5.98295 11.4545C5.98295 11.8807 6.08736 12.2685 6.29616 12.6179C6.50497 12.9673 6.78409 13.2464 7.13352 13.4553C7.48295 13.6641 7.87074 13.7685 8.29688 13.7685C8.79119 13.7685 9.20881 13.63 9.54972 13.353C9.89489 13.0717 10.1122 12.7116 10.2017 12.2727H11.7486C11.6676 12.8395 11.4695 13.3487 11.1541 13.8004C10.8388 14.2479 10.4339 14.6016 9.93963 14.8615C9.44957 15.1214 8.90199 15.2514 8.29688 15.2514C7.59801 15.2514 6.96094 15.081 6.38565 14.7401C5.81037 14.3991 5.35227 13.9411 5.01136 13.3658C4.67045 12.7905 4.5 12.1534 4.5 11.4545ZM8.23295 18.2045C7.30398 18.2045 6.4304 18.0298 5.61222 17.6804C4.7983 17.331 4.08026 16.8473 3.4581 16.2294C2.8402 15.6072 2.3544 14.8892 2.00071 14.0753C1.65128 13.2614 1.47869 12.3878 1.48295 11.4545C1.48722 10.5213 1.66406 9.64773 2.01349 8.83381C2.36719 8.01989 2.85298 7.30398 3.47088 6.68608C4.08878 6.06392 4.80469 5.57812 5.61861 5.22869C6.43253 4.87926 7.30398 4.70455 8.23295 4.70455C9.16619 4.70455 10.0398 4.87926 10.8537 5.22869C11.6719 5.57812 12.3878 6.06392 13.0014 6.68608C13.6193 7.30398 14.103 8.01989 14.4524 8.83381C14.8018 9.64773 14.9787 10.5213 14.983 11.4545C14.9872 12.3878 14.8146 13.2614 14.4652 14.0753C14.1158 14.8892 13.6321 15.6072 13.0142 16.2294C12.3963 16.8473 11.6783 17.331 10.8601 17.6804C10.0419 18.0298 9.16619 18.2045 8.23295 18.2045ZM8.23295 16.7216C8.96165 16.7216 9.6456 16.5852 10.2848 16.3125C10.924 16.0398 11.4844 15.6626 11.9659 15.1811C12.4474 14.6996 12.8246 14.1413 13.0973 13.5064C13.37 12.8672 13.5043 12.1854 13.5 11.4609C13.4957 10.7322 13.3572 10.0483 13.0845 9.40909C12.8118 8.76989 12.4347 8.20952 11.9531 7.72798C11.4716 7.24645 10.9134 6.86932 10.2784 6.59659C9.64347 6.32386 8.96165 6.1875 8.23295 6.1875C7.50852 6.1875 6.82884 6.32386 6.19389 6.59659C5.55895 6.86932 5.00071 7.24858 4.51918 7.73438C4.03764 8.21591 3.65838 8.77628 3.38139 9.41548C3.10866 10.0504 2.97017 10.7322 2.96591 11.4609C2.96165 12.1811 3.09588 12.8608 3.36861 13.5C3.64134 14.1349 4.01847 14.6932 4.5 15.1747C4.9858 15.6562 5.54617 16.0355 6.18111 16.3125C6.82031 16.5852 7.50426 16.7216 8.23295 16.7216ZM22.8883 18V16.8494L27.2093 12.1193C27.7164 11.5653 28.1341 11.0838 28.4622 10.6747C28.7903 10.2614 29.0332 9.87358 29.1909 9.51136C29.3528 9.14489 29.4338 8.76136 29.4338 8.3608C29.4338 7.90057 29.323 7.50213 29.1014 7.16548C28.8841 6.82883 28.5858 6.56889 28.2065 6.38565C27.8272 6.20241 27.4011 6.1108 26.9281 6.1108C26.4252 6.1108 25.9863 6.2152 25.6113 6.42401C25.2406 6.62855 24.9529 6.91619 24.7484 7.28693C24.5481 7.65767 24.448 8.09233 24.448 8.59091H22.9395C22.9395 7.82386 23.1163 7.15057 23.47 6.57102C23.8237 5.99148 24.3052 5.53977 24.9146 5.21591C25.5282 4.89204 26.2164 4.73011 26.9792 4.73011C27.7463 4.73011 28.426 4.89204 29.0183 5.21591C29.6106 5.53977 30.0751 5.97656 30.4118 6.52628C30.7484 7.07599 30.9167 7.6875 30.9167 8.3608C30.9167 8.84233 30.8294 9.31321 30.6547 9.77344C30.4842 10.2294 30.1859 10.7386 29.7598 11.3011C29.3379 11.8594 28.752 12.5412 28.002 13.3466L25.0616 16.4915V16.5938H31.1468V18H22.8883ZM38.0566 18.179C37.0936 18.179 36.2733 17.9169 35.5957 17.3928C34.9181 16.8643 34.4004 16.0994 34.0424 15.098C33.6845 14.0923 33.5055 12.8778 33.5055 11.4545C33.5055 10.0398 33.6845 8.83168 34.0424 7.83026C34.4047 6.82457 34.9245 6.05753 35.6021 5.52912C36.2839 4.99645 37.1021 4.73011 38.0566 4.73011C39.0112 4.73011 39.8272 4.99645 40.5048 5.52912C41.1866 6.05753 41.7065 6.82457 42.0645 7.83026C42.4267 8.83168 42.6078 10.0398 42.6078 11.4545C42.6078 12.8778 42.4288 14.0923 42.0708 15.098C41.7129 16.0994 41.1951 16.8643 40.5176 17.3928C39.84 17.9169 39.0197 18.179 38.0566 18.179ZM38.0566 16.7727C39.0112 16.7727 39.7527 16.3125 40.2811 15.392C40.8095 14.4716 41.0737 13.1591 41.0737 11.4545C41.0737 10.321 40.9522 9.35582 40.7093 8.55895C40.4707 7.76207 40.1255 7.15483 39.6738 6.73722C39.2264 6.3196 38.6873 6.1108 38.0566 6.1108C37.1106 6.1108 36.3713 6.57741 35.8386 7.51065C35.3059 8.43963 35.0396 9.75426 35.0396 11.4545C35.0396 12.5881 35.1589 13.5511 35.3975 14.3438C35.6362 15.1364 35.9792 15.7393 36.4267 16.1527C36.8784 16.5661 37.4217 16.7727 38.0566 16.7727ZM45.0368 18V16.8494L49.3578 12.1193C49.8649 11.5653 50.2825 11.0838 50.6106 10.6747C50.9387 10.2614 51.1816 9.87358 51.3393 9.51136C51.5012 9.14489 51.5822 8.76136 51.5822 8.3608C51.5822 7.90057 51.4714 7.50213 51.2498 7.16548C51.0325 6.82883 50.7342 6.56889 50.3549 6.38565C49.9757 6.20241 49.5495 6.1108 49.0765 6.1108C48.5737 6.1108 48.1348 6.2152 47.7598 6.42401C47.389 6.62855 47.1014 6.91619 46.8968 7.28693C46.6966 7.65767 46.5964 8.09233 46.5964 8.59091H45.0879C45.0879 7.82386 45.2647 7.15057 45.6184 6.57102C45.9721 5.99148 46.4537 5.53977 47.063 5.21591C47.6767 4.89204 48.3649 4.73011 49.1277 4.73011C49.8947 4.73011 50.5744 4.89204 51.1667 5.21591C51.7591 5.53977 52.2235 5.97656 52.5602 6.52628C52.8968 7.07599 53.0652 7.6875 53.0652 8.3608C53.0652 8.84233 52.9778 9.31321 52.8031 9.77344C52.6326 10.2294 52.3343 10.7386 51.9082 11.3011C51.4863 11.8594 50.9004 12.5412 50.1504 13.3466L47.21 16.4915V16.5938H53.2953V18H45.0368ZM55.9352 18V16.8494L60.2562 12.1193C60.7633 11.5653 61.1809 11.0838 61.5091 10.6747C61.8372 10.2614 62.0801 9.87358 62.2377 9.51136C62.3997 9.14489 62.4806 8.76136 62.4806 8.3608C62.4806 7.90057 62.3699 7.50213 62.1483 7.16548C61.9309 6.82883 61.6326 6.56889 61.2534 6.38565C60.8741 6.20241 60.448 6.1108 59.975 6.1108C59.4721 6.1108 59.0332 6.2152 58.6582 6.42401C58.2875 6.62855 57.9998 6.91619 57.7953 7.28693C57.595 7.65767 57.4949 8.09233 57.4949 8.59091H55.9863C55.9863 7.82386 56.1632 7.15057 56.5169 6.57102C56.8706 5.99148 57.3521 5.53977 57.9615 5.21591C58.5751 4.89204 59.2633 4.73011 60.0261 4.73011C60.7931 4.73011 61.4728 4.89204 62.0652 5.21591C62.6575 5.53977 63.122 5.97656 63.4586 6.52628C63.7953 7.07599 63.9636 7.6875 63.9636 8.3608C63.9636 8.84233 63.8762 9.31321 63.7015 9.77344C63.5311 10.2294 63.2328 10.7386 62.8066 11.3011C62.3848 11.8594 61.7988 12.5412 61.0488 13.3466L58.1085 16.4915V16.5938H64.1937V18H55.9352ZM72.6632 18H71.0012L75.8081 4.90909H77.4444L82.2512 18H80.5893L76.6774 6.98011H76.5751L72.6632 18ZM73.2768 12.8864H79.9757V14.2926H73.2768V12.8864ZM84.0858 18V8.18182H85.5431V9.66477H85.6454C85.8244 9.17898 86.1483 8.7848 86.617 8.48224C87.0858 8.17969 87.6142 8.02841 88.2022 8.02841C88.313 8.02841 88.4515 8.03054 88.6177 8.0348C88.7839 8.03906 88.9096 8.04545 88.9949 8.05398V9.58807C88.9437 9.57528 88.8265 9.55611 88.6433 9.53054C88.4643 9.50071 88.2747 9.4858 88.0744 9.4858C87.5971 9.4858 87.171 9.58594 86.796 9.78622C86.4252 9.98224 86.1312 10.255 85.9139 10.6044C85.7008 10.9496 85.5943 11.3437 85.5943 11.7869V18H84.0858ZM94.4728 18.2045C93.5865 18.2045 92.8088 17.9936 92.1397 17.5717C91.475 17.1499 90.9551 16.5597 90.5801 15.8011C90.2093 15.0426 90.024 14.1562 90.024 13.142C90.024 12.1193 90.2093 11.2266 90.5801 10.4638C90.9551 9.70099 91.475 9.10866 92.1397 8.68679C92.8088 8.26491 93.5865 8.05398 94.4728 8.05398C95.3592 8.05398 96.1348 8.26491 96.7995 8.68679C97.4686 9.10866 97.9885 9.70099 98.3592 10.4638C98.7342 11.2266 98.9217 12.1193 98.9217 13.142C98.9217 14.1562 98.7342 15.0426 98.3592 15.8011C97.9885 16.5597 97.4686 17.1499 96.7995 17.5717C96.1348 17.9936 95.3592 18.2045 94.4728 18.2045ZM94.4728 16.8494C95.1461 16.8494 95.7001 16.6768 96.1348 16.3317C96.5694 15.9865 96.8912 15.5327 97.1 14.9702C97.3088 14.4077 97.4132 13.7983 97.4132 13.142C97.4132 12.4858 97.3088 11.8743 97.1 11.3075C96.8912 10.7408 96.5694 10.2827 96.1348 9.93324C95.7001 9.58381 95.1461 9.40909 94.4728 9.40909C93.7995 9.40909 93.2456 9.58381 92.8109 9.93324C92.3762 10.2827 92.0545 10.7408 91.8457 11.3075C91.6369 11.8743 91.5325 12.4858 91.5325 13.142C91.5325 13.7983 91.6369 14.4077 91.8457 14.9702C92.0545 15.5327 92.3762 15.9865 92.8109 16.3317C93.2456 16.6768 93.7995 16.8494 94.4728 16.8494ZM107.412 13.9858V8.18182H108.92V18H107.412V16.3381H107.31C107.08 16.8366 106.722 17.2607 106.236 17.6101C105.75 17.9553 105.136 18.1278 104.395 18.1278C103.781 18.1278 103.236 17.9936 102.759 17.7251C102.281 17.4524 101.906 17.0433 101.634 16.4979C101.361 15.9482 101.224 15.2557 101.224 14.4205V8.18182H102.733V14.3182C102.733 15.0341 102.933 15.6051 103.334 16.0312C103.739 16.4574 104.254 16.6705 104.881 16.6705C105.256 16.6705 105.637 16.5746 106.025 16.3828C106.417 16.1911 106.745 15.897 107.009 15.5007C107.278 15.1044 107.412 14.5994 107.412 13.9858ZM113.192 12.0938V18H111.683V8.18182H113.141V9.71591H113.269C113.499 9.21733 113.848 8.81676 114.317 8.5142C114.786 8.20739 115.391 8.05398 116.132 8.05398C116.797 8.05398 117.379 8.19034 117.877 8.46307C118.376 8.73153 118.764 9.14062 119.041 9.69034C119.318 10.2358 119.456 10.9261 119.456 11.7614V18H117.948V11.8636C117.948 11.0923 117.747 10.4915 117.347 10.0611C116.946 9.62642 116.396 9.40909 115.698 9.40909C115.216 9.40909 114.786 9.51349 114.406 9.7223C114.031 9.93111 113.735 10.2358 113.518 10.6364C113.301 11.0369 113.192 11.5227 113.192 12.0938ZM125.92 18.2045C125.102 18.2045 124.38 17.9979 123.753 17.5845C123.127 17.1669 122.637 16.5788 122.283 15.8203C121.929 15.0575 121.752 14.1562 121.752 13.1165C121.752 12.0852 121.929 11.1903 122.283 10.4318C122.637 9.6733 123.129 9.08736 123.76 8.67401C124.39 8.26065 125.119 8.05398 125.946 8.05398C126.585 8.05398 127.09 8.16051 127.461 8.37358C127.836 8.58239 128.121 8.82102 128.317 9.08949C128.517 9.35369 128.673 9.57102 128.784 9.74148H128.912V4.90909H130.42V18H128.963V16.4915H128.784C128.673 16.6705 128.515 16.8963 128.311 17.169C128.106 17.4375 127.814 17.6783 127.435 17.8913C127.056 18.1001 126.551 18.2045 125.92 18.2045ZM126.125 16.8494C126.73 16.8494 127.241 16.6918 127.659 16.3764C128.076 16.0568 128.394 15.6158 128.611 15.0533C128.828 14.4865 128.937 13.8324 128.937 13.0909C128.937 12.358 128.831 11.7166 128.618 11.1669C128.404 10.6129 128.089 10.1825 127.672 9.87571C127.254 9.56463 126.738 9.40909 126.125 9.40909C125.485 9.40909 124.953 9.57315 124.527 9.90128C124.105 10.2251 123.787 10.6662 123.574 11.2244C123.365 11.7784 123.261 12.4006 123.261 13.0909C123.261 13.7898 123.368 14.4247 123.581 14.9957C123.798 15.5625 124.118 16.0142 124.539 16.3509C124.966 16.6832 125.494 16.8494 126.125 16.8494ZM137.944 6.31534V4.90909H147.762V6.31534H143.645V18H142.06V6.31534H137.944ZM151.512 12.0938V18H150.004V4.90909H151.512V9.71591H151.64C151.87 9.20881 152.215 8.80611 152.676 8.50781C153.14 8.20526 153.758 8.05398 154.529 8.05398C155.198 8.05398 155.784 8.18821 156.287 8.45668C156.79 8.72088 157.18 9.12784 157.457 9.67756C157.738 10.223 157.879 10.9176 157.879 11.7614V18H156.37V11.8636C156.37 11.0838 156.168 10.4808 155.763 10.0547C155.362 9.62429 154.806 9.40909 154.095 9.40909C153.6 9.40909 153.157 9.51349 152.765 9.7223C152.377 9.93111 152.07 10.2358 151.845 10.6364C151.623 11.0369 151.512 11.5227 151.512 12.0938ZM164.755 18.2045C163.809 18.2045 162.993 17.9957 162.307 17.5781C161.625 17.1562 161.099 16.5682 160.728 15.8139C160.362 15.0554 160.178 14.1733 160.178 13.1676C160.178 12.1619 160.362 11.2756 160.728 10.5085C161.099 9.73722 161.614 9.13636 162.275 8.70597C162.94 8.27131 163.715 8.05398 164.602 8.05398C165.113 8.05398 165.618 8.1392 166.116 8.30966C166.615 8.48011 167.069 8.7571 167.478 9.14062C167.887 9.51989 168.213 10.0227 168.456 10.6491C168.699 11.2756 168.82 12.0469 168.82 12.9631V13.6023H161.252V12.2983H167.286C167.286 11.7443 167.175 11.25 166.954 10.8153C166.737 10.3807 166.425 10.0376 166.021 9.78622C165.62 9.5348 165.147 9.40909 164.602 9.40909C164.001 9.40909 163.481 9.55824 163.042 9.85653C162.607 10.1506 162.273 10.5341 162.038 11.0071C161.804 11.4801 161.687 11.9872 161.687 12.5284V13.3977C161.687 14.1392 161.815 14.7678 162.07 15.2834C162.33 15.7947 162.69 16.1847 163.151 16.4531C163.611 16.7173 164.146 16.8494 164.755 16.8494C165.151 16.8494 165.509 16.794 165.829 16.6832C166.153 16.5682 166.432 16.3977 166.666 16.1719C166.901 15.9418 167.082 15.6562 167.21 15.3153L168.667 15.7244C168.513 16.2188 168.256 16.6534 167.893 17.0284C167.531 17.3991 167.084 17.6889 166.551 17.8977C166.018 18.1023 165.42 18.2045 164.755 18.2045ZM184.973 4.90909H186.558V13.5767C186.558 14.4716 186.347 15.2706 185.925 15.9737C185.508 16.6726 184.918 17.2244 184.155 17.6293C183.392 18.0298 182.497 18.2301 181.47 18.2301C180.443 18.2301 179.548 18.0298 178.786 17.6293C178.023 17.2244 177.43 16.6726 177.009 15.9737C176.591 15.2706 176.382 14.4716 176.382 13.5767V4.90909H177.967V13.4489C177.967 14.0881 178.108 14.657 178.389 15.1555C178.67 15.6499 179.071 16.0398 179.591 16.3253C180.115 16.6065 180.741 16.7472 181.47 16.7472C182.199 16.7472 182.825 16.6065 183.349 16.3253C183.874 16.0398 184.274 15.6499 184.551 15.1555C184.832 14.657 184.973 14.0881 184.973 13.4489V4.90909ZM190.004 18.1023C189.688 18.1023 189.418 17.9893 189.192 17.7635C188.966 17.5376 188.853 17.267 188.853 16.9517C188.853 16.6364 188.966 16.3658 189.192 16.1399C189.418 15.9141 189.688 15.8011 190.004 15.8011C190.319 15.8011 190.589 15.9141 190.815 16.1399C191.041 16.3658 191.154 16.6364 191.154 16.9517C191.154 17.1605 191.101 17.3523 190.994 17.527C190.892 17.7017 190.754 17.8423 190.579 17.9489C190.408 18.0511 190.217 18.1023 190.004 18.1023ZM201.225 8.18182C201.148 7.53409 200.837 7.03125 200.292 6.6733C199.746 6.31534 199.077 6.13636 198.284 6.13636C197.705 6.13636 197.198 6.23011 196.763 6.41761C196.333 6.60511 195.996 6.86293 195.753 7.19105C195.515 7.51918 195.395 7.89204 195.395 8.30966C195.395 8.65909 195.478 8.95952 195.645 9.21094C195.815 9.4581 196.032 9.66477 196.297 9.83097C196.561 9.9929 196.838 10.1271 197.127 10.2337C197.417 10.3359 197.684 10.419 197.926 10.483L199.256 10.8409C199.597 10.9304 199.976 11.054 200.394 11.2116C200.816 11.3693 201.218 11.5845 201.602 11.8572C201.99 12.1257 202.309 12.4709 202.561 12.8928C202.812 13.3146 202.938 13.8324 202.938 14.446C202.938 15.1534 202.752 15.7926 202.382 16.3636C202.015 16.9347 201.478 17.3885 200.771 17.7251C200.068 18.0618 199.213 18.2301 198.208 18.2301C197.27 18.2301 196.458 18.0788 195.772 17.7763C195.091 17.4737 194.554 17.0518 194.162 16.5107C193.774 15.9695 193.554 15.3409 193.503 14.625H195.14C195.182 15.1193 195.348 15.5284 195.638 15.8523C195.932 16.1719 196.303 16.4105 196.75 16.5682C197.202 16.7216 197.688 16.7983 198.208 16.7983C198.813 16.7983 199.356 16.7003 199.838 16.5043C200.319 16.304 200.701 16.027 200.982 15.6733C201.263 15.3153 201.404 14.8977 201.404 14.4205C201.404 13.9858 201.282 13.6321 201.039 13.3594C200.797 13.0866 200.477 12.8651 200.081 12.6946C199.684 12.5241 199.256 12.375 198.796 12.2472L197.185 11.7869C196.162 11.4929 195.353 11.0732 194.756 10.5277C194.159 9.98224 193.861 9.26847 193.861 8.38636C193.861 7.65341 194.059 7.0142 194.456 6.46875C194.856 5.91903 195.393 5.4929 196.066 5.19034C196.744 4.88352 197.5 4.73011 198.336 4.73011C199.179 4.73011 199.929 4.88139 200.586 5.18395C201.242 5.48224 201.762 5.89133 202.145 6.41122C202.533 6.93111 202.738 7.52131 202.759 8.18182H201.225ZM206.439 18.1023C206.124 18.1023 205.853 17.9893 205.627 17.7635C205.401 17.5376 205.289 17.267 205.289 16.9517C205.289 16.6364 205.401 16.3658 205.627 16.1399C205.853 15.9141 206.124 15.8011 206.439 15.8011C206.754 15.8011 207.025 15.9141 207.251 16.1399C207.477 16.3658 207.59 16.6364 207.59 16.9517C207.59 17.1605 207.536 17.3523 207.43 17.527C207.328 17.7017 207.189 17.8423 207.014 17.9489C206.844 18.0511 206.652 18.1023 206.439 18.1023Z" fill="#545454"/>
</svg>
