<svg width="50" height="15" viewBox="0 0 50 15" fill="none" xmlns="http://www.w3.org/2000/svg">
<path d="M3.69371 14.2301C5.40678 14.2301 6.30167 13.3097 6.60849 12.6705H6.68519V14H8.19371V7.53125C8.19371 4.41193 5.81587 4.05398 4.56303 4.05398C3.08008 4.05398 1.39258 4.56534 0.625533 6.35511L2.05735 6.86648C2.38974 6.15057 3.17596 5.38352 4.61417 5.38352C6.00124 5.38352 6.68519 6.11861 6.68519 7.37784V7.42898C6.68519 8.15767 5.94371 8.09375 4.15394 8.32386C2.33221 8.56037 0.344283 8.96307 0.344283 11.2131C0.344283 13.1307 1.82724 14.2301 3.69371 14.2301ZM3.92383 12.875C2.72212 12.875 1.85281 12.3381 1.85281 11.2898C1.85281 10.1392 2.9011 9.78125 4.07724 9.62784C4.71644 9.55114 6.42951 9.37216 6.68519 9.06534V10.446C6.68519 11.6733 5.7136 12.875 3.92383 12.875ZM14.9357 14.2045C17.109 14.2045 18.5408 12.875 18.7965 11.1364H17.288C17.0067 12.2102 16.1119 12.8494 14.9357 12.8494C13.146 12.8494 11.9954 11.3665 11.9954 9.09091C11.9954 6.86648 13.1715 5.40909 14.9357 5.40909C16.2653 5.40909 17.0579 6.22727 17.288 7.12216H18.7965C18.5408 5.28125 16.9812 4.05398 14.9102 4.05398C12.2511 4.05398 10.4869 6.15057 10.4869 9.14205C10.4869 12.0824 12.1744 14.2045 14.9357 14.2045ZM25.2717 4.18182H23.1751V1.82955H21.6665V4.18182H20.1836V5.46023H21.6665V11.5966C21.6665 13.3097 23.0472 14.1278 24.3256 14.1278C24.8881 14.1278 25.2461 14.0256 25.4506 13.9489L25.1438 12.5938C25.016 12.6193 24.8114 12.6705 24.479 12.6705C23.8143 12.6705 23.1751 12.4659 23.1751 11.1875V5.46023H25.2717V4.18182ZM27.5408 14H29.0494V4.18182H27.5408V14ZM28.3079 2.54545C28.896 2.54545 29.3817 2.08523 29.3817 1.52273C29.3817 0.960227 28.896 0.5 28.3079 0.5C27.7198 0.5 27.234 0.960227 27.234 1.52273C27.234 2.08523 27.7198 2.54545 28.3079 2.54545ZM39.8407 4.18182H38.2044L35.4941 12.0057H35.3919L32.6816 4.18182H31.0453L34.676 14H36.2101L39.8407 4.18182ZM45.5968 14.2045C47.5911 14.2045 49.0485 13.2074 49.5087 11.7244L48.0513 11.3153C47.6678 12.3381 46.7793 12.8494 45.5968 12.8494C43.8262 12.8494 42.6053 11.7053 42.535 9.60227H49.6621V8.96307C49.6621 5.30682 47.4888 4.05398 45.4434 4.05398C42.7843 4.05398 41.0201 6.15057 41.0201 9.16761C41.0201 12.1847 42.7587 14.2045 45.5968 14.2045ZM42.535 8.2983C42.6373 6.7706 43.7175 5.40909 45.4434 5.40909C47.0797 5.40909 48.128 6.63636 48.128 8.2983H42.535Z" fill="black"/>
</svg>
